<?xml version="1.0" encoding="UTF-8"?>
<!DOCTYPE svg PUBLIC "-//W3C//DTD SVG 1.1//EN" "http://www.w3.org/Graphics/SVG/1.1/DTD/svg11.dtd">
<svg version="1.1" xmlns="http://www.w3.org/2000/svg" xmlns:xlink="http://www.w3.org/1999/xlink" x="0" y="0" width="778.991" height="763.398" viewBox="0, 0, 778.991, 763.398">
  <defs>
    <clipPath id="Clip_1">
      <path d="M-0,23.996 L778.99,23.996 L778.99,763.398 L-0,763.398 z"/>
    </clipPath>
    <clipPath id="Clip_2">
      <path d="M177.495,213.882 L366.707,213.882 L366.707,589.073 L177.495,589.073 z"/>
    </clipPath>
    <clipPath id="Clip_3">
      <path d="M579.967,284.62 L619.196,284.62 L619.196,326.906 L579.967,326.906 z"/>
    </clipPath>
    <clipPath id="Clip_4">
      <path d="M591.667,357.767 L676.813,357.767 L676.813,629.944 L591.667,629.944 z"/>
    </clipPath>
    <clipPath id="Clip_5">
      <path d="M276.379,448.704 L607.126,448.704 L607.126,670.377 L276.379,670.377 z"/>
    </clipPath>
    <clipPath id="Clip_6">
      <path d="M545.701,589.229 L575.217,589.229 L575.217,631.668 L545.701,631.668 z"/>
    </clipPath>
    <clipPath id="Clip_7">
      <path d="M501.58,620.76 L547.631,620.76 L547.631,688.494 L501.58,688.494 z"/>
    </clipPath>
    <clipPath id="Clip_8">
      <path d="M583.88,624.982 L628.053,624.982 L628.053,688.494 L583.88,688.494 z"/>
    </clipPath>
    <clipPath id="Clip_9">
      <path d="M47.381,451.676 L94.059,451.676 L94.059,501.991 L47.381,501.991 z"/>
    </clipPath>
    <clipPath id="Clip_10">
      <path d="M85.356,538.958 L166.077,538.958 L166.077,692.202 L85.356,692.202 z"/>
    </clipPath>
    <clipPath id="Clip_11">
      <path d="M328.876,570.448 L391.329,570.448 L391.329,579.2 L328.876,579.2 z"/>
    </clipPath>
    <clipPath id="Clip_12">
      <path d="M280.532,608.215 L396.118,608.215 L396.118,728.468 L280.532,728.468 z"/>
    </clipPath>
  </defs>
  <g id="Layer_1">
    <g clip-path="url(#Clip_1)" id="g34061" opacity="0.2">
      <path d="M472.164,681.325 L449.789,681.325 C457.231,678.731 464.504,675.775 471.584,672.475 C471.55,673.12 471.532,673.776 471.532,674.445 C471.532,676.796 471.756,679.092 472.164,681.325 M529.727,648.094 C529.675,648.073 529.624,648.051 529.571,648.03 C529.146,647.863 528.713,647.705 528.277,647.551 C528.2,647.524 528.124,647.495 528.047,647.468 C527.621,647.321 527.188,647.181 526.752,647.046 C526.661,647.018 526.572,646.988 526.482,646.961 C526.047,646.829 525.607,646.705 525.164,646.585 C525.069,646.559 524.975,646.533 524.88,646.507 C524.435,646.39 523.984,646.28 523.53,646.174 C523.434,646.151 523.338,646.128 523.241,646.106 C522.782,646.002 522.32,645.905 521.853,645.813 C521.759,645.794 521.665,645.775 521.571,645.757 C521.097,645.666 520.619,645.581 520.136,645.502 C520.048,645.488 519.96,645.473 519.872,645.459 C519.38,645.381 518.885,645.308 518.385,645.242 C518.306,645.232 518.227,645.222 518.148,645.212 C517.635,645.146 517.119,645.085 516.598,645.032 C516.565,645.029 516.532,645.025 516.498,645.021 C516.88,644.724 517.269,644.436 517.65,644.136 C520.308,642.045 522.915,639.892 525.478,637.69 C526.979,642.595 529.923,646.868 533.816,650.017 C532.523,649.299 531.155,648.662 529.727,648.094 M767.558,565.145 C759.665,553.019 753.042,540.113 748.184,526.485 L722.526,454.516 C720.099,447.707 714.059,444.315 708.03,444.338 C710.574,435.015 716.528,421.476 729.681,421.303 L729.636,417.865 C720.001,417.992 712.304,424.134 707.377,435.629 C705.993,438.856 705.017,442.054 704.334,444.795 C699.715,445.922 695.564,449.156 693.653,454.516 L667.996,526.485 C667.066,529.093 666.052,531.666 664.997,534.22 C664.265,532.964 663.514,531.72 662.722,530.503 C660.29,526.767 657.956,522.971 655.729,519.115 C653.502,515.26 651.383,511.345 649.38,507.373 C647.377,503.401 645.491,499.37 643.732,495.284 C641.973,491.197 640.34,487.053 638.842,482.854 L615.85,418.359 C614.868,392.51 610.132,368.035 602.375,345.938 C625.375,332.973 624.052,307.876 624.052,307.876 C622.369,308.063 620.755,308.317 619.196,308.621 C619.196,308.621 619.195,308.621 619.195,308.621 C607.158,310.966 598.755,316.622 592.909,323.141 C591.845,320.947 590.751,318.782 589.624,316.653 C569.905,279.43 559.073,238.153 559.073,196.03 L559.073,179.156 C559.073,137.078 526.633,102.214 485.529,98.325 C484.172,79.04 486.086,45.241 497.015,35.482 L486.764,24.001 C467.732,40.994 469.476,88.043 470.103,98.336 C429.056,102.281 396.68,137.119 396.68,179.156 L396.68,196.03 C396.68,238.153 385.848,279.43 366.13,316.653 C358.125,331.764 351.706,348.562 347.197,366.583 C346.892,365.85 346.595,365.115 346.284,364.384 C344.33,359.793 342.25,355.239 340.049,350.74 C338.582,347.74 337.061,344.765 335.488,341.818 C334.702,340.345 333.902,338.879 333.09,337.421 C331.466,334.504 329.791,331.619 328.067,328.77 C326.343,325.921 324.569,323.108 322.748,320.335 C320.017,316.177 317.179,312.11 314.241,308.152 C309.343,301.554 304.166,295.257 298.737,289.335 C294.393,284.597 289.889,280.099 285.237,275.879 C284.074,274.825 282.902,273.787 281.721,272.768 C279.358,270.729 276.96,268.761 274.528,266.871 C251.422,248.913 225.238,237.882 197.493,237.882 C196.208,237.882 194.927,237.914 193.648,237.962 C193.362,237.973 193.075,237.981 192.789,237.994 C191.671,238.045 190.556,238.116 189.443,238.203 C188.94,238.241 188.438,238.286 187.936,238.332 C187.233,238.397 186.531,238.471 185.829,238.55 C184.841,238.66 183.856,238.785 182.872,238.923 C182.584,238.963 182.296,239.005 182.008,239.048 C95.813,251.79 28.279,368.268 28.279,456.5 C28.279,492.66 39.628,526.165 58.948,553.662 C23.482,559.366 0,581.849 0,621.056 C0,666.917 37.178,716.247 83.039,716.247 C83.814,716.247 84.586,716.23 85.357,716.202 C85.358,716.202 85.358,716.202 85.359,716.202 C92.355,715.948 99.135,714.552 105.596,712.205 C105.597,712.204 105.599,712.204 105.6,712.203 C106.198,711.986 106.793,711.759 107.386,711.525 C107.438,711.504 107.492,711.485 107.544,711.464 C108.096,711.245 108.644,711.016 109.192,710.784 C109.284,710.744 109.378,710.707 109.47,710.668 C109.988,710.444 110.503,710.212 111.017,709.977 C111.135,709.923 111.255,709.871 111.374,709.816 C111.865,709.588 112.353,709.35 112.84,709.111 C112.979,709.043 113.118,708.978 113.256,708.909 C113.728,708.674 114.195,708.431 114.662,708.186 C114.813,708.107 114.965,708.031 115.116,707.95 C115.57,707.708 116.02,707.458 116.47,707.207 C116.631,707.117 116.793,707.03 116.953,706.939 C117.39,706.69 117.824,706.434 118.258,706.177 C118.428,706.076 118.599,705.978 118.768,705.876 C119.189,705.622 119.606,705.361 120.023,705.099 C120.202,704.987 120.382,704.876 120.56,704.762 C120.967,704.502 121.37,704.236 121.772,703.969 C121.957,703.846 122.142,703.725 122.326,703.601 C122.72,703.335 123.111,703.062 123.501,702.789 C123.69,702.657 123.88,702.526 124.068,702.392 C124.449,702.12 124.827,701.842 125.205,701.564 C125.398,701.421 125.592,701.28 125.784,701.136 C126.153,700.859 126.518,700.577 126.883,700.294 C127.08,700.141 127.278,699.989 127.474,699.835 C127.832,699.552 128.187,699.264 128.542,698.976 C128.74,698.814 128.939,698.653 129.136,698.49 C129.484,698.202 129.828,697.909 130.172,697.616 C130.372,697.445 130.572,697.275 130.771,697.102 C131.107,696.81 131.44,696.513 131.773,696.216 C131.975,696.035 132.178,695.854 132.379,695.671 C132.706,695.373 133.03,695.072 133.353,694.769 C133.554,694.581 133.755,694.393 133.954,694.204 C134.272,693.901 134.587,693.594 134.901,693.286 C135.103,693.088 135.304,692.891 135.504,692.692 C135.811,692.385 136.116,692.076 136.42,691.765 C136.621,691.558 136.822,691.352 137.021,691.144 C137.32,690.833 137.616,690.519 137.911,690.203 C138.11,689.99 138.309,689.777 138.507,689.562 C138.797,689.245 139.084,688.927 139.371,688.606 C139.569,688.385 139.767,688.162 139.964,687.938 C140.244,687.62 140.521,687.299 140.797,686.977 C140.995,686.746 141.192,686.515 141.388,686.282 C141.658,685.961 141.926,685.638 142.192,685.313 C142.389,685.074 142.585,684.834 142.779,684.593 C143.041,684.268 143.3,683.941 143.559,683.612 C143.751,683.367 143.943,683.121 144.134,682.873 C144.388,682.544 144.64,682.213 144.89,681.881 C145.08,681.628 145.269,681.375 145.457,681.121 C145.702,680.789 145.945,680.456 146.187,680.121 C146.374,679.86 146.561,679.599 146.746,679.337 C146.767,679.308 146.788,679.279 146.808,679.25 C159.578,704.597 183.494,724.373 210.891,724.373 C227.716,724.373 243.226,716.91 255.651,705.283 C261.145,720.019 271.298,732.474 284.314,740.885 C284.689,741.128 285.062,741.373 285.442,741.609 C285.941,741.918 286.447,742.217 286.954,742.515 C287.362,742.755 287.772,742.991 288.185,743.223 C288.685,743.504 289.186,743.781 289.693,744.05 C290.141,744.287 290.595,744.515 291.048,744.743 C291.535,744.988 292.019,745.238 292.512,745.473 C293.257,745.827 294.012,746.164 294.771,746.494 C295.327,746.735 295.89,746.965 296.454,747.193 C297.03,747.426 297.607,747.659 298.19,747.877 C298.648,748.049 299.111,748.21 299.573,748.372 C300.146,748.574 300.721,748.769 301.3,748.957 C301.754,749.103 302.208,749.247 302.666,749.385 C303.302,749.577 303.943,749.756 304.586,749.93 C304.991,750.04 305.393,750.156 305.801,750.259 C306.83,750.519 307.865,750.761 308.911,750.976 C309.122,751.02 309.338,751.053 309.55,751.095 C310.425,751.267 311.304,751.426 312.19,751.566 C312.575,751.627 312.963,751.678 313.351,751.733 C314.085,751.837 314.821,751.932 315.562,752.014 C315.969,752.059 316.376,752.101 316.784,752.139 C317.555,752.211 318.33,752.268 319.108,752.316 C319.468,752.338 319.827,752.365 320.188,752.382 C321.322,752.434 322.46,752.468 323.607,752.468 C324.858,752.468 326.102,752.437 327.338,752.374 C329.81,752.249 332.249,752 334.649,751.633 C337.05,751.266 339.411,750.782 341.728,750.186 C349.724,748.128 357.182,744.735 363.861,740.269 C378.636,754.584 398.772,763.398 420.97,763.398 C455.992,763.398 485.886,741.463 497.677,710.585 C498.951,711.004 500.252,711.361 501.581,711.645 L501.58,711.645 C501.581,711.645 501.581,711.645 501.582,711.645 C502.844,711.916 504.129,712.124 505.435,712.266 C505.468,712.269 505.499,712.275 505.532,712.278 C506.116,712.34 506.706,712.386 507.298,712.421 C507.385,712.426 507.471,712.436 507.558,712.44 C508.228,712.476 508.903,712.495 509.581,712.495 C530.596,712.495 547.631,695.459 547.631,674.445 C547.631,673.806 547.614,673.178 547.583,672.561 C547.572,672.354 547.551,672.155 547.537,671.951 C547.51,671.546 547.483,671.14 547.442,670.745 C547.417,670.504 547.382,670.272 547.352,670.035 C547.308,669.687 547.266,669.337 547.212,668.997 C547.172,668.747 547.122,668.505 547.077,668.26 C547.018,667.943 546.961,667.624 546.893,667.314 C546.839,667.066 546.776,666.823 546.716,666.579 C546.643,666.283 546.571,665.987 546.49,665.698 C546.42,665.453 546.344,665.213 546.269,664.972 C546.183,664.695 546.096,664.419 546.003,664.148 C545.919,663.907 545.829,663.672 545.739,663.436 C545.641,663.176 545.541,662.917 545.435,662.664 C545.337,662.429 545.234,662.198 545.129,661.968 C545.019,661.724 544.906,661.482 544.789,661.243 C544.676,661.015 544.56,660.789 544.441,660.566 C544.32,660.338 544.196,660.112 544.068,659.889 C543.94,659.666 543.809,659.445 543.675,659.227 C543.545,659.015 543.411,658.806 543.275,658.6 C543.131,658.382 542.986,658.166 542.836,657.953 C542.698,657.757 542.555,657.564 542.411,657.372 C542.252,657.16 542.092,656.95 541.927,656.744 C541.781,656.563 541.631,656.386 541.48,656.209 C541.305,656.002 541.129,655.796 540.947,655.596 C540.798,655.432 540.644,655.273 540.491,655.113 C540.296,654.909 540.101,654.705 539.899,654.508 C539.752,654.364 539.599,654.226 539.449,654.086 C539.23,653.882 539.013,653.678 538.787,653.481 C538.65,653.362 538.507,653.249 538.367,653.132 C538.184,652.979 538.004,652.821 537.815,652.673 C540.236,653.968 542.892,654.882 545.701,655.337 L545.701,655.337 C546.327,655.438 546.961,655.514 547.6,655.568 C547.696,655.577 547.792,655.583 547.888,655.59 C548.517,655.637 549.151,655.669 549.792,655.669 C550.231,655.669 550.667,655.657 551.101,655.635 C551.967,655.592 552.823,655.504 553.664,655.376 C554.085,655.311 554.503,655.237 554.917,655.152 C556.572,654.813 558.168,654.314 559.689,653.671 C560.4,653.37 561.093,653.035 561.77,652.672 C555.67,657.495 551.954,664.632 551.954,674.445 C551.954,693.374 565.779,709.068 583.881,711.998 L583.881,711.998 C583.881,711.998 583.882,711.998 583.882,711.998 C584.254,712.058 584.628,712.108 585.003,712.157 C585.208,712.184 585.412,712.212 585.617,712.235 C585.938,712.272 586.259,712.305 586.581,712.334 C586.89,712.362 587.2,712.384 587.51,712.405 C587.758,712.421 588.005,712.439 588.254,712.451 C588.834,712.478 589.417,712.495 590.004,712.495 C611.018,712.495 628.053,695.459 628.053,674.445 C628.053,673.71 628.027,672.993 627.986,672.288 C627.973,672.065 627.951,671.85 627.934,671.63 C627.897,671.147 627.853,670.67 627.796,670.201 C627.767,669.96 627.734,669.722 627.7,669.485 C627.635,669.037 627.562,668.596 627.48,668.161 C627.439,667.942 627.399,667.723 627.353,667.507 C627.25,667.022 627.134,666.546 627.009,666.077 C626.97,665.933 626.937,665.784 626.897,665.641 C626.721,665.02 626.527,664.411 626.313,663.82 C626.302,663.791 626.29,663.764 626.279,663.735 C626.077,663.181 625.855,662.641 625.62,662.113 C625.559,661.978 625.494,661.847 625.432,661.713 C625.233,661.288 625.026,660.871 624.807,660.464 C624.733,660.326 624.658,660.19 624.581,660.055 C624.347,659.638 624.101,659.231 623.846,658.833 C623.782,658.734 623.721,658.633 623.656,658.535 C622.646,657.012 621.479,655.625 620.172,654.368 C620.13,654.327 620.086,654.288 620.044,654.248 C619.641,653.866 619.226,653.497 618.797,653.139 C618.75,653.1 618.703,653.06 618.655,653.021 C617.779,652.299 616.854,651.625 615.879,651.002 C627.504,648.259 638.073,643.653 647.026,637.316 C659.365,655.428 682.086,665.328 708.09,665.328 C747.247,665.328 778.99,642.903 778.99,603.745 C778.99,589.505 774.787,576.251 767.558,565.145" fill="#4C4B4D" id="path34059"/>
    </g>
    <path d="M559.073,172.03 L559.073,155.155 C559.073,110.497 522.534,73.959 477.876,73.959 L477.876,73.959 C433.218,73.959 396.679,110.497 396.679,155.155 L396.679,172.03 C396.679,214.153 385.848,255.43 366.129,292.653 C349.513,324.019 339.705,362.642 339.705,404.43 C339.705,509.419 401.566,572.054 477.876,572.054 C554.186,572.054 616.047,509.419 616.047,404.43 C616.047,362.642 606.239,324.019 589.623,292.653 C569.905,255.43 559.073,214.153 559.073,172.03" fill="#ABD048" id="path34063"/>
    <path d="M552.703,177.056 L552.703,160.814 C552.703,117.829 519.031,82.66 477.876,82.66 L477.876,82.66 C436.721,82.66 403.05,117.829 403.05,160.814 L403.05,177.056 C403.05,217.6 393.068,257.331 374.896,293.159 C359.584,323.349 350.545,360.525 350.545,400.747 C350.545,501.802 407.553,562.09 477.876,562.09 C548.199,562.09 605.208,501.802 605.208,400.747 C605.208,360.525 596.169,323.349 580.857,293.159 C562.685,257.331 552.703,217.6 552.703,177.056" fill="#FEC85A" id="path34065"/>
    <path d="M544.244,194.894 L544.244,180.245 C544.244,141.477 514.379,109.758 477.876,109.758 L477.876,109.758 C441.374,109.758 411.508,141.477 411.508,180.245 L411.508,194.894 C411.508,231.461 402.654,267.294 386.537,299.608 C372.956,326.837 364.939,360.366 364.939,396.642 C364.939,487.785 415.503,542.159 477.876,542.159 C540.249,542.159 590.813,487.785 590.813,396.642 C590.813,360.366 582.796,326.837 569.215,299.608 C553.098,267.294 544.244,231.461 544.244,194.894" fill="#F69044" id="path34067"/>
    <path d="M532.532,221.393 L532.532,208.749 C532.532,175.288 507.937,147.911 477.876,147.911 L477.876,147.911 C447.815,147.911 423.22,175.288 423.22,208.749 L423.22,221.393 C423.22,252.955 415.929,283.883 402.656,311.773 C391.471,335.275 384.869,364.214 384.869,395.525 C384.869,474.191 426.51,521.122 477.876,521.122 C529.242,521.122 570.883,474.191 570.883,395.525 C570.883,364.214 564.281,335.275 553.096,311.773 C539.823,283.883 532.532,252.955 532.532,221.393" fill="#F06937" id="path34069"/>
    <path d="M508.188,277.681 L508.188,269.654 C508.188,248.409 494.548,231.028 477.877,231.028 L477.877,231.028 C461.205,231.028 447.565,248.409 447.565,269.654 L447.565,277.681 C447.565,297.719 443.522,317.355 436.161,335.062 C429.958,349.983 426.296,368.356 426.296,388.235 C426.296,438.179 449.39,467.975 477.877,467.975 C506.364,467.975 529.457,438.179 529.457,388.235 C529.457,368.356 525.795,349.983 519.593,335.062 C512.232,317.355 508.188,297.719 508.188,277.681" fill="#F69634" id="path34071"/>
    <path d="M495.604,325.214 L495.604,320.519 C495.604,308.095 491.68,290.265 478.205,291.372 C469.663,292.074 460.149,308.095 460.149,320.519 L460.149,325.214 C460.149,336.933 457.785,348.417 453.479,358.773 C449.852,367.499 447.71,378.245 447.71,389.871 C447.71,419.08 461.216,436.506 477.877,436.506 C494.537,436.506 508.043,419.08 508.043,389.871 C508.043,378.245 505.902,367.499 502.274,358.773 C497.969,348.417 495.604,336.933 495.604,325.214" fill="#FAB14B" id="path34073"/>
    <path d="M474.001,316.285 C474.001,318.731 472.018,320.714 469.572,320.714 C467.126,320.714 465.143,318.731 465.143,316.285 C465.143,313.839 467.126,311.856 469.572,311.856 C472.018,311.856 474.001,313.839 474.001,316.285" fill="#4C4B4D" id="path34075"/>
    <path d="M474.001,327.911 C474.001,330.357 472.018,332.34 469.572,332.34 C467.126,332.34 465.143,330.357 465.143,327.911 C465.143,325.465 467.126,323.482 469.572,323.482 C472.018,323.482 474.001,325.465 474.001,327.911" fill="#4C4B4D" id="path34077"/>
    <path d="M474.001,344.519 C474.001,346.965 472.018,348.948 469.572,348.948 C467.126,348.948 465.143,346.965 465.143,344.519 C465.143,342.073 467.126,340.09 469.572,340.09 C472.018,340.09 474.001,342.073 474.001,344.519" fill="#4C4B4D" id="path34079"/>
    <path d="M474.001,360.574 C474.001,363.02 472.018,365.003 469.572,365.003 C467.126,365.003 465.143,363.02 465.143,360.574 C465.143,358.128 467.126,356.145 469.572,356.145 C472.018,356.145 474.001,358.128 474.001,360.574" fill="#4C4B4D" id="path34081"/>
    <path d="M474.001,372.753 C474.001,375.2 472.018,377.183 469.572,377.183 C467.126,377.183 465.143,375.2 465.143,372.753 C465.143,370.308 467.126,368.325 469.572,368.325 C472.018,368.325 474.001,370.308 474.001,372.753" fill="#4C4B4D" id="path34083"/>
    <path d="M474.001,389.362 C474.001,391.808 472.018,393.791 469.572,393.791 C467.126,393.791 465.143,391.808 465.143,389.362 C465.143,386.916 467.126,384.933 469.572,384.933 C472.018,384.933 474.001,386.916 474.001,389.362" fill="#4C4B4D" id="path34085"/>
    <path d="M474.001,402.649 C474.001,405.095 472.018,407.078 469.572,407.078 C467.126,407.078 465.143,405.095 465.143,402.649 C465.143,400.203 467.126,398.22 469.572,398.22 C472.018,398.22 474.001,400.203 474.001,402.649" fill="#4C4B4D" id="path34087"/>
    <path d="M474.001,420.918 C474.001,423.364 472.018,425.347 469.572,425.347 C467.126,425.347 465.143,423.364 465.143,420.918 C465.143,418.472 467.126,416.489 469.572,416.489 C472.018,416.489 474.001,418.472 474.001,420.918" fill="#4C4B4D" id="path34089"/>
    <path d="M481.46,322.375 C481.46,324.354 479.855,325.959 477.876,325.959 C475.897,325.959 474.292,324.354 474.292,322.375 C474.292,320.396 475.897,318.791 477.876,318.791 C479.855,318.791 481.46,320.396 481.46,322.375" fill="#4C4B4D" id="path34091"/>
    <path d="M481.46,334.516 C481.46,336.495 479.855,338.101 477.876,338.101 C475.897,338.101 474.292,336.495 474.292,334.516 C474.292,332.537 475.897,330.933 477.876,330.933 C479.855,330.933 481.46,332.537 481.46,334.516" fill="#4C4B4D" id="path34093"/>
    <path d="M483.966,352.823 C483.966,356.186 481.24,358.913 477.876,358.913 C474.513,358.913 471.786,356.186 471.786,352.823 C471.786,349.46 474.513,346.733 477.876,346.733 C481.24,346.733 483.966,349.46 483.966,352.823" fill="#4C4B4D" id="path34095"/>
    <path d="M481.46,368.325 C481.46,370.304 479.855,371.909 477.876,371.909 C475.897,371.909 474.292,370.304 474.292,368.325 C474.292,366.346 475.897,364.741 477.876,364.741 C479.855,364.741 481.46,366.346 481.46,368.325" fill="#4C4B4D" id="path34097"/>
    <path d="M481.46,384.933 C481.46,386.912 479.855,388.517 477.876,388.517 C475.897,388.517 474.292,386.912 474.292,384.933 C474.292,382.954 475.897,381.349 477.876,381.349 C479.855,381.349 481.46,382.954 481.46,384.933" fill="#4C4B4D" id="path34099"/>
    <path d="M483.966,398.22 C483.966,400.666 481.983,402.649 479.537,402.649 C477.091,402.649 475.108,400.666 475.108,398.22 C475.108,395.774 477.091,393.791 479.537,393.791 C481.983,393.791 483.966,395.774 483.966,398.22" fill="#4C4B4D" id="path34101"/>
    <path d="M482.305,416.489 C482.305,418.935 480.322,420.918 477.876,420.918 C475.43,420.918 473.447,418.935 473.447,416.489 C473.447,414.043 475.43,412.06 477.876,412.06 C480.322,412.06 482.305,414.043 482.305,416.489" fill="#4C4B4D" id="path34103"/>
    <path d="M488.395,360.574 C488.395,363.02 486.412,365.003 483.966,365.003 C481.52,365.003 479.537,363.02 479.537,360.574 C479.537,358.128 481.52,356.145 483.966,356.145 C486.412,356.145 488.395,358.128 488.395,360.574" fill="#4C4B4D" id="path34105"/>
    <path d="M486.405,342.305 C486.405,344.57 484.569,346.405 482.306,346.405 C480.04,346.405 478.205,344.57 478.205,342.305 C478.205,340.041 480.04,338.205 482.306,338.205 C484.569,338.205 486.405,340.041 486.405,342.305" fill="#4C4B4D" id="path34107"/>
    <path d="M488.395,325.959 C488.395,328.405 486.412,330.388 483.966,330.388 C481.52,330.388 479.537,328.405 479.537,325.959 C479.537,323.513 481.52,321.53 483.966,321.53 C486.412,321.53 488.395,323.513 488.395,325.959" fill="#4C4B4D" id="path34109"/>
    <path d="M483.966,311.856 C483.966,313.24 482.844,314.362 481.46,314.362 C480.076,314.362 478.955,313.24 478.955,311.856 C478.955,310.472 480.076,309.35 481.46,309.35 C482.844,309.35 483.966,310.472 483.966,311.856" fill="#4C4B4D" id="path34111"/>
    <path d="M475.108,303.552 C475.108,305.387 473.621,306.874 471.786,306.874 C469.952,306.874 468.465,305.387 468.465,303.552 C468.465,301.718 469.952,300.23 471.786,300.23 C473.621,300.23 475.108,301.718 475.108,303.552" fill="#4C4B4D" id="path34113"/>
    <path d="M488.133,377.182 C488.133,379.483 486.268,381.349 483.966,381.349 C481.665,381.349 479.8,379.483 479.8,377.182 C479.8,374.881 481.665,373.015 483.966,373.015 C486.268,373.015 488.133,374.881 488.133,377.182" fill="#4C4B4D" id="path34115"/>
    <path d="M491.679,388.517 C491.679,391.43 489.318,393.791 486.405,393.791 C483.493,393.791 481.132,391.43 481.132,388.517 C481.132,385.604 483.493,383.243 486.405,383.243 C489.318,383.243 491.679,385.604 491.679,388.517" fill="#4C4B4D" id="path34117"/>
    <path d="M488.133,407.078 C488.133,409.379 486.268,411.245 483.966,411.245 C481.665,411.245 479.8,409.379 479.8,407.078 C479.8,404.777 481.665,402.911 483.966,402.911 C486.268,402.911 488.133,404.777 488.133,407.078" fill="#4C4B4D" id="path34119"/>
    <path d="M495.263,368.325 C495.263,370.304 493.658,371.909 491.679,371.909 C489.699,371.909 488.095,370.304 488.095,368.325 C488.095,366.346 489.699,364.741 491.679,364.741 C493.658,364.741 495.263,366.346 495.263,368.325" fill="#4C4B4D" id="path34121"/>
    <path d="M493.534,351.006 C493.534,353.844 491.233,356.145 488.395,356.145 C485.557,356.145 483.256,353.844 483.256,351.006 C483.256,348.168 485.557,345.867 488.395,345.867 C491.233,345.867 493.534,348.168 493.534,351.006" fill="#4C4B4D" id="path34123"/>
    <path d="M495.263,334.516 C495.263,336.495 493.658,338.101 491.679,338.101 C489.699,338.101 488.095,336.495 488.095,334.516 C488.095,332.537 489.699,330.933 491.679,330.933 C493.658,330.933 495.263,332.537 495.263,334.516" fill="#4C4B4D" id="path34125"/>
    <path d="M490.341,315.173 C490.955,316.413 490.448,317.916 489.208,318.531 C487.968,319.145 486.465,318.638 485.85,317.397 C485.236,316.157 485.743,314.654 486.983,314.04 C488.223,313.426 489.727,313.933 490.341,315.173" fill="#4C4B4D" id="path34127"/>
    <path d="M486.405,300.23 C486.405,303.143 484.045,305.504 481.131,305.504 C478.22,305.504 475.858,303.143 475.858,300.23 C475.858,297.317 478.22,294.956 481.131,294.956 C484.045,294.956 486.405,297.317 486.405,300.23" fill="#4C4B4D" id="path34129"/>
    <path d="M479.504,426.403 C481.061,427.302 481.595,429.293 480.696,430.85 C479.797,432.407 477.806,432.94 476.249,432.042 C474.692,431.143 474.158,429.152 475.057,427.595 C475.956,426.038 477.947,425.504 479.504,426.403" fill="#4C4B4D" id="path34131"/>
    <path d="M470.201,75.808 C469.769,69.948 466.561,18.039 486.763,-0 L497.014,11.482 C486.019,21.299 484.148,55.455 485.552,74.679 z" fill="#ABD048" id="path34133"/>
    <path d="M366.707,432.5 C366.707,525.954 290.947,601.714 197.493,601.714 C104.039,601.714 28.279,525.954 28.279,432.5 C28.279,339.046 104.039,213.882 197.493,213.882 C290.947,213.882 366.707,339.046 366.707,432.5" fill="#7E5134" id="path34135"/>
    <path d="M356.357,430.989 C356.357,518.727 285.231,589.853 197.493,589.853 C109.755,589.853 38.629,518.727 38.629,430.989 C38.629,343.251 109.755,225.743 197.493,225.743 C285.231,225.743 356.357,343.251 356.357,430.989" fill="#FEFEFE" id="path34137"/>
    <path d="M343.904,429.171 C343.904,510.031 278.354,575.582 197.493,575.582 C116.633,575.582 51.082,510.031 51.082,429.171 C51.082,348.311 116.633,240.013 197.493,240.013 C278.354,240.013 343.904,348.311 343.904,429.171" fill="#E5E6E7" id="path34139"/>
    <g clip-path="url(#Clip_2)" id="g34143" opacity="0.15">
      <path d="M197.493,213.882 C190.726,213.882 184.055,214.558 177.495,215.811 C229.123,281.744 287.419,401.076 261.752,589.072 C323.336,563.77 366.707,503.205 366.707,432.5 C366.707,339.046 290.947,213.882 197.493,213.882" fill="#373535" id="path34141"/>
    </g>
    <path d="M638.842,458.853 L607.218,370.147 C601.254,353.418 577.595,353.418 571.63,370.147 L540.006,458.853 C534.018,475.65 525.855,491.557 516.127,506.503 C507.216,520.192 502.036,536.528 502.036,554.08 C502.036,602.343 541.161,629.984 589.424,629.984 C637.688,629.984 676.813,602.343 676.813,554.08 C676.813,536.528 671.632,520.192 662.722,506.503 C652.994,491.557 644.83,475.65 638.842,458.853" fill="#DED659" id="path34145"/>
    <path d="M585.842,368.264 L592.616,367.585 C592.547,366.898 590.851,350.563 583.705,333.893 C573.948,311.131 558.706,298.967 539.628,298.716 L539.538,305.524 C579.102,306.044 585.779,367.642 585.842,368.264" fill="#58BA7A" id="path34147"/>
    <path d="M579.703,328.863 C579.703,328.863 583.201,288.416 624.053,283.876 C624.053,283.876 626.134,323.352 579.703,328.863" fill="#5AB979" id="path34149"/>
    <g clip-path="url(#Clip_3)" id="g34153" opacity="0.15">
      <path d="M579.967,326.906 C581.223,319.159 587.935,290.709 619.197,284.62 C614.804,296.947 604.333,312.891 579.967,326.906" fill="#373535" id="path34151"/>
    </g>
    <g clip-path="url(#Clip_4)" id="g34157" opacity="0.15">
      <path d="M662.722,506.503 C652.994,491.557 644.83,475.651 638.842,458.853 L607.218,370.148 C604.571,362.723 598.438,358.601 591.914,357.767 C601.677,403.156 634.763,574.339 591.667,629.943 C638.891,629.097 676.813,601.591 676.813,554.08 C676.813,536.528 671.632,520.192 662.722,506.503" fill="#373535" id="path34155"/>
    </g>
    <path d="M706.297,428.986 L702.876,428.644 C702.911,428.296 703.767,420.048 707.376,411.63 C712.304,400.135 720,393.992 729.635,393.865 L729.681,397.303 C709.701,397.566 706.329,428.673 706.297,428.986" fill="#58BA7A" id="path34159"/>
    <path d="M748.184,502.484 L722.526,430.515 C717.688,416.941 698.492,416.941 693.653,430.515 L667.996,502.484 C663.137,516.112 656.514,529.018 648.621,541.145 C641.392,552.25 637.189,565.505 637.189,579.744 C637.189,618.903 668.932,641.327 708.09,641.327 C747.247,641.327 778.991,618.903 778.991,579.744 C778.991,565.505 774.787,552.25 767.558,541.145 C759.666,529.018 753.043,516.112 748.184,502.484" fill="#DED659" id="path34161"/>
    <path d="M744.096,505.374 L721.054,440.741 C716.708,428.552 699.47,428.552 695.124,440.741 L672.082,505.374 C667.719,517.613 661.771,529.203 654.683,540.093 C648.191,550.067 644.416,561.97 644.416,574.758 C644.416,609.924 672.924,630.063 708.089,630.063 C743.255,630.063 771.762,609.924 771.762,574.758 C771.762,561.97 767.987,550.067 761.495,540.093 C754.407,529.203 748.459,517.613 744.096,505.374" fill="#FBF6D5" id="path34163"/>
    <path d="M734.985,563.722 C734.985,578.576 722.944,594.553 708.09,594.553 C693.236,594.553 681.195,578.576 681.195,563.722 C681.195,548.868 691.596,541.419 706.45,541.419 C721.304,541.419 734.985,548.868 734.985,563.722" fill="#FBF1AB" id="path34165"/>
    <path d="M702.286,568.236 C700.758,572.64 698.16,575.737 696.483,575.155 C694.805,574.573 694.684,570.532 696.211,566.128 C697.739,561.725 700.337,558.627 702.015,559.209 C703.692,559.791 703.814,563.832 702.286,568.236" fill="#4C4B4D" id="path34167"/>
    <path d="M716.86,566.512 C717.832,571.071 717.212,575.066 715.475,575.436 C713.739,575.806 711.543,572.411 710.571,567.853 C709.6,563.294 710.219,559.299 711.956,558.928 C713.693,558.558 715.888,561.953 716.86,566.512" fill="#4C4B4D" id="path34169"/>
    <path d="M137.608,448.704 C144.595,572.301 247.021,670.377 372.367,670.377 C497.713,670.377 600.139,572.301 607.126,448.704 z" fill="#57B876" id="path34171"/>
    <path d="M161.241,448.704 C168.195,559.266 260.052,646.79 372.367,646.79 C484.682,646.79 576.54,559.266 583.494,448.704 z" fill="#FEF6D3" id="path34173"/>
    <path d="M170.694,448.704 C177.632,554.051 265.264,637.356 372.367,637.356 C479.47,637.356 567.102,554.051 574.04,448.704 z" fill="#EB5F61" id="path34175"/>
    <path d="M209.348,488.804 C209.348,493.581 207.822,497.453 205.941,497.453 C204.059,497.453 202.534,493.581 202.534,488.804 C202.534,484.027 204.059,480.155 205.941,480.155 C207.822,480.155 209.348,484.027 209.348,488.804" fill="#4C4B4D" id="path34177"/>
    <path d="M269.366,474.782 C269.366,479.559 267.841,483.431 265.959,483.431 C264.077,483.431 262.552,479.559 262.552,474.782 C262.552,470.005 264.077,466.133 265.959,466.133 C267.841,466.133 269.366,470.005 269.366,474.782" fill="#4C4B4D" id="path34179"/>
    <path d="M251.544,543.056 C251.544,547.833 250.019,551.705 248.137,551.705 C246.255,551.705 244.73,547.833 244.73,543.056 C244.73,538.279 246.255,534.407 248.137,534.407 C250.019,534.407 251.544,538.279 251.544,543.056" fill="#4C4B4D" id="path34181"/>
    <path d="M319.163,591.179 C319.163,595.956 317.638,599.828 315.756,599.828 C313.874,599.828 312.349,595.956 312.349,591.179 C312.349,586.402 313.874,582.53 315.756,582.53 C317.638,582.53 319.163,586.402 319.163,591.179" fill="#4C4B4D" id="path34183"/>
    <path d="M319.163,518.682 C319.163,523.459 317.638,527.331 315.756,527.331 C313.874,527.331 312.349,523.459 312.349,518.682 C312.349,513.905 313.874,510.033 315.756,510.033 C317.638,510.033 319.163,513.905 319.163,518.682" fill="#4C4B4D" id="path34185"/>
    <path d="M370.823,480.155 C370.823,484.932 369.297,488.804 367.416,488.804 C365.534,488.804 364.009,484.932 364.009,480.155 C364.009,475.378 365.534,471.506 367.416,471.506 C369.297,471.506 370.823,475.378 370.823,480.155" fill="#4C4B4D" id="path34187"/>
    <path d="M391.662,603.874 C391.662,608.651 390.137,612.523 388.255,612.523 C386.373,612.523 384.848,608.651 384.848,603.874 C384.848,599.097 386.373,595.225 388.255,595.225 C390.137,595.225 391.662,599.097 391.662,603.874" fill="#4C4B4D" id="path34189"/>
    <path d="M388.255,551.705 C388.255,556.482 386.73,560.354 384.848,560.354 C382.966,560.354 381.441,556.482 381.441,551.705 C381.441,546.928 382.966,543.056 384.848,543.056 C386.73,543.056 388.255,546.928 388.255,551.705" fill="#4C4B4D" id="path34191"/>
    <path d="M452.566,529.572 C452.566,534.349 451.041,538.221 449.159,538.221 C447.277,538.221 445.752,534.349 445.752,529.572 C445.752,524.795 447.277,520.923 449.159,520.923 C451.041,520.923 452.566,524.795 452.566,529.572" fill="#4C4B4D" id="path34193"/>
    <path d="M459.38,474.782 C459.38,479.559 457.855,483.431 455.973,483.431 C454.091,483.431 452.566,479.559 452.566,474.782 C452.566,470.005 454.091,466.133 455.973,466.133 C457.855,466.133 459.38,470.005 459.38,474.782" fill="#4C4B4D" id="path34195"/>
    <path d="M477.464,579.197 C477.464,583.974 475.938,587.846 474.057,587.846 C472.175,587.846 470.65,583.974 470.65,579.197 C470.65,574.42 472.175,570.548 474.057,570.548 C475.938,570.548 477.464,574.42 477.464,579.197" fill="#4C4B4D" id="path34197"/>
    <path d="M530.144,515.144 C530.144,519.921 528.618,523.793 526.737,523.793 C524.855,523.793 523.33,519.921 523.33,515.144 C523.33,510.367 524.855,506.495 526.737,506.495 C528.618,506.495 530.144,510.367 530.144,515.144" fill="#4C4B4D" id="path34199"/>
    <path d="M536.958,474.782 C536.958,479.559 535.433,483.431 533.551,483.431 C531.669,483.431 530.144,479.559 530.144,474.782 C530.144,470.005 531.669,466.133 533.551,466.133 C535.433,466.133 536.958,470.005 536.958,474.782" fill="#4C4B4D" id="path34201"/>
    <g clip-path="url(#Clip_5)" id="g34205" opacity="0.15">
      <path d="M583.493,448.704 L574.04,448.704 L472.761,448.704 C460.441,503.022 418.166,592.124 276.379,649.939 C305.69,663.064 338.172,670.377 372.367,670.377 C497.712,670.377 600.139,572.301 607.126,448.704 z" fill="#4C4B4D" id="path34203"/>
    </g>
    <path d="M524.368,606.244 C524.368,620.286 535.751,631.669 549.793,631.669 C563.834,631.669 575.217,620.286 575.217,606.244 C575.217,592.202 563.834,586.354 549.793,586.354 C535.751,586.354 524.368,592.202 524.368,606.244" fill="#E85253" id="path34207"/>
    <g clip-path="url(#Clip_6)" id="g34211" opacity="0.15">
      <path d="M564.622,589.229 C565.674,603.607 563.661,623.992 545.701,631.336 C547.034,631.552 548.399,631.668 549.793,631.668 C563.834,631.668 575.217,620.285 575.217,606.243 C575.217,597.738 571.036,592.243 564.622,589.229" fill="#373535" id="path34209"/>
    </g>
    <path d="M550.997,565.774 C547.46,551.472 538.853,539.336 528.479,531.142 L524.903,531.142 C536.635,538.791 544.546,550.569 548.46,566.32 C552.215,581.432 550.682,594.714 550.666,594.846 L553.242,595.157 C553.309,594.6 554.848,581.338 550.997,565.774" fill="#45B586" id="path34213"/>
    <path d="M547.631,650.445 C547.631,671.459 530.596,688.495 509.581,688.495 C488.567,688.495 471.532,671.459 471.532,650.445 C471.532,629.431 488.567,620.678 509.581,620.678 C530.596,620.678 547.631,629.431 547.631,650.445" fill="#E85253" id="path34215"/>
    <path d="M551.954,650.445 C551.954,671.459 568.989,688.495 590.004,688.495 C611.018,688.495 628.053,671.459 628.053,650.445 C628.053,629.431 611.018,620.678 590.004,620.678 C568.989,620.678 551.954,629.431 551.954,650.445" fill="#E85253" id="path34217"/>
    <path d="M591.807,589.88 C585.807,565.627 570.071,545.53 551.779,533.47 C549.552,524.04 552.878,502.784 552.913,502.564 L549.079,501.955 C548.938,502.84 545.913,522.189 547.711,532.876 C529.733,545.02 513.693,565.971 507.778,589.88 C502.016,613.172 504.318,633.021 504.419,633.854 L508.273,633.387 C508.249,633.189 505.956,613.314 511.576,590.696 C517.757,565.818 530.592,547.551 549.792,536.194 C568.993,547.551 581.828,565.818 588.009,590.696 C593.629,613.314 591.336,633.189 591.312,633.387 L595.166,633.854 C595.267,633.021 597.569,613.172 591.807,589.88" fill="#45B586" id="path34219"/>
    <g clip-path="url(#Clip_7)" id="g34223" opacity="0.15">
      <path d="M512.934,620.76 C522.073,630.389 527.916,642.112 522.307,654.586 C515.882,668.878 508.143,679.871 501.58,687.645 C504.161,688.197 506.836,688.494 509.581,688.494 C530.595,688.494 547.631,671.459 547.631,650.445 C547.631,630.561 532.377,621.661 512.934,620.76" fill="#373535" id="path34221"/>
    </g>
    <g clip-path="url(#Clip_8)" id="g34227" opacity="0.15">
      <path d="M612.197,624.982 C613.772,646.5 610.759,677.007 583.881,687.998 C585.875,688.321 587.918,688.495 590.004,688.495 C611.017,688.495 628.053,671.459 628.053,650.445 C628.053,637.716 621.795,629.493 612.197,624.982" fill="#373535" id="path34225"/>
    </g>
    <path d="M166.077,597.056 C166.077,642.917 128.899,692.247 83.038,692.247 C37.177,692.247 0,642.917 0,597.056 C0,551.195 32.114,528.195 77.975,528.195 C123.836,528.195 166.077,551.195 166.077,597.056" fill="#EB605F" id="path34229"/>
    <path d="M87.068,551.201 L79.008,550.393 C79.089,549.575 81.108,530.139 89.611,510.304 C101.221,483.22 119.356,468.747 142.057,468.448 L142.163,476.548 C95.087,477.168 87.143,550.461 87.068,551.201" fill="#58BA7A" id="path34231"/>
    <path d="M94.374,504.319 C94.374,504.319 90.212,456.192 41.604,450.791 C41.604,450.791 39.126,497.762 94.374,504.319" fill="#5AB979" id="path34233"/>
    <g clip-path="url(#Clip_9)" id="g34237" opacity="0.15">
      <path d="M94.059,501.991 C92.564,492.773 84.578,458.922 47.381,451.677 C52.608,466.344 65.067,485.315 94.059,501.991" fill="#373535" id="path34235"/>
    </g>
    <g clip-path="url(#Clip_10)" id="g34241" opacity="0.15">
      <path d="M128.249,538.958 C140.792,588.128 142.013,651.896 85.356,692.202 C130.146,690.577 166.077,642.142 166.077,597.056 C166.077,569.312 150.616,549.938 128.249,538.958" fill="#373535" id="path34239"/>
    </g>
    <path d="M213.652,573.906 L208.408,573.38 C208.461,572.848 209.775,560.204 215.306,547.299 C222.859,529.679 234.658,520.263 249.426,520.069 L249.496,525.339 C218.869,525.742 213.701,573.425 213.652,573.906" fill="#58BA7A" id="path34243"/>
    <path d="M284.815,615.63 C284.815,656.457 251.718,700.373 210.89,700.373 C170.063,700.373 136.966,656.457 136.966,615.63 C136.966,574.802 165.555,554.327 206.383,554.327 C247.21,554.327 284.815,574.802 284.815,615.63" fill="#EB605F" id="path34245"/>
    <path d="M281.209,616.201 C281.209,655.037 249.726,696.81 210.89,696.81 C172.054,696.81 140.572,655.037 140.572,616.201 C140.572,577.365 167.767,557.888 206.603,557.888 C245.439,557.888 281.209,577.365 281.209,616.201" fill="#FBF6D5" id="path34247"/>
    <path d="M234.781,623.562 C234.781,636.756 224.085,650.948 210.891,650.948 C197.696,650.948 187,636.756 187,623.562 C187,610.368 196.24,603.751 209.434,603.751 C222.628,603.751 234.781,610.368 234.781,623.562" fill="#FBF1AB" id="path34249"/>
    <path d="M204.381,627.63 C202.668,632.569 199.753,636.044 197.872,635.391 C195.99,634.738 195.854,630.205 197.567,625.266 C199.281,620.327 202.195,616.852 204.077,617.505 C205.958,618.158 206.095,622.691 204.381,627.63" fill="#4C4B4D" id="path34251"/>
    <path d="M220.728,625.696 C221.818,630.809 221.123,635.291 219.175,635.706 C217.227,636.121 214.764,632.313 213.674,627.2 C212.584,622.087 213.28,617.605 215.228,617.19 C217.175,616.775 219.638,620.583 220.728,625.696" fill="#4C4B4D" id="path34253"/>
    <path d="M396.118,655.957 C396.118,696.004 363.654,728.468 323.607,728.468 C283.56,728.468 251.095,696.004 251.095,655.957 C251.095,615.91 283.56,583.445 323.607,583.445 C363.654,583.445 396.118,615.91 396.118,655.957" fill="#F9A932" id="path34255"/>
    <path d="M328.083,588.918 L322.611,588.918 C322.611,587.262 322.927,548.297 350.358,542.909 L351.413,548.279 C328.35,552.809 328.083,588.557 328.083,588.918" fill="#57B876" id="path34257"/>
    <path d="M328.876,573.526 C328.876,573.526 347.891,555.74 363.967,560.529 C380.042,565.317 385.857,570.448 391.329,570.448 C391.329,570.448 363.219,587.891 328.876,573.526" fill="#57B876" id="path34259"/>
    <g clip-path="url(#Clip_11)" id="g34263" opacity="0.4">
      <path d="M330.107,572.444 C329.316,573.116 328.876,573.526 328.876,573.526 C363.219,587.891 391.33,570.447 391.33,570.447 C391.33,570.447 351.826,577.388 330.107,572.444" fill="#246D45" id="path34261"/>
    </g>
    <g clip-path="url(#Clip_12)" id="g34267" opacity="0.05">
      <path d="M378.159,608.215 C378.197,636.631 370.972,723.583 280.532,714.283 C292.577,723.193 307.474,728.468 323.606,728.468 C363.653,728.468 396.118,696.003 396.118,655.956 C396.118,637.666 389.332,620.971 378.159,608.215" fill="#373535" id="path34265"/>
    </g>
    <path d="M338.882,657.325 C338.89,702.654 375.639,739.398 420.97,739.398 C466.301,739.398 503.05,702.654 503.058,657.325 z" fill="#F9A932" id="path34269"/>
    <path d="M430.905,662.725 L487.612,662.344 C486.476,677.512 480.271,691.286 470.671,701.961 z M425.512,723.989 L425.14,668.568 L464.812,707.711 C454.136,717.01 440.497,722.977 425.512,723.989 M377.794,708.29 L416.932,668.623 L417.304,724.055 C402.286,723.24 388.58,717.438 377.794,708.29 M354.396,663.239 L411.089,662.858 L371.865,702.612 C362.119,692.055 355.732,678.364 354.396,663.239 M496.478,657.324 L345.462,657.324 C345.47,697.743 377.401,730.836 417.362,732.726 L417.363,732.847 L425.571,732.793 L425.57,732.664 C465.065,730.277 496.47,697.407 496.478,657.324" fill="#F9F2A5" id="path34271"/>
  </g>
</svg>
